<?xml version="1.0" encoding="UTF-8" standalone="no"?>
<svg
   xmlns:dc="http://purl.org/dc/elements/1.1/"
   xmlns:cc="http://creativecommons.org/ns#"
   xmlns:rdf="http://www.w3.org/1999/02/22-rdf-syntax-ns#"
   xmlns:svg="http://www.w3.org/2000/svg"
   xmlns="http://www.w3.org/2000/svg"
   xmlns:sodipodi="http://sodipodi.sourceforge.net/DTD/sodipodi-0.dtd"
   xmlns:inkscape="http://www.inkscape.org/namespaces/inkscape"
   width="300"
   height="300"
   viewBox="0 0 300 300"
   version="1.1"
   id="svg2216"
   inkscape:version="1.0.1 (3bc2e813f5, 2020-09-07)"
   sodipodi:docname="_MASTER-FRAME-FONT-NEW.svg">
  <defs
     id="defs2210" />
  <sodipodi:namedview
     id="base"
     pagecolor="#ffffff"
     bordercolor="#666666"
     borderopacity="1.0"
     inkscape:pageopacity="0.0"
     inkscape:pageshadow="2"
     inkscape:zoom="0.98994949"
     inkscape:cx="233.17409"
     inkscape:cy="184.99516"
     inkscape:document-units="px"
     inkscape:current-layer="layer1"
     showgrid="false"
     units="px"
     inkscape:window-width="1366"
     inkscape:window-height="705"
     inkscape:window-x="-8"
     inkscape:window-y="-8"
     inkscape:window-maximized="1"
     fit-margin-top="10"
     fit-margin-left="10"
     fit-margin-bottom="10"
     fit-margin-right="10"
     inkscape:showpageshadow="false"
     scale-x="1"
     inkscape:document-rotation="0" />
  <metadata
     id="metadata2213">
    <rdf:RDF>
      <cc:Work
         rdf:about="">
        <dc:format>image/svg+xml</dc:format>
        <dc:type
           rdf:resource="http://purl.org/dc/dcmitype/StillImage" />
        <dc:title />
      </cc:Work>
    </rdf:RDF>
  </metadata>
  <g
     inkscape:label="Layer 1"
     inkscape:groupmode="layer"
     id="layer1"
     transform="translate(0,0)">
    
<g
       aria-label="c"
       style="font-style:normal;font-variant:normal;font-weight:normal;font-stretch:normal;font-size:5.33333px;line-height:1.25;font-family:'Open Sans';-inkscape-font-specification:'Open Sans, Normal';font-variant-ligatures:normal;font-variant-caps:normal;font-variant-numeric:normal;font-feature-settings:normal;text-align:start;letter-spacing:0px;word-spacing:0px;writing-mode:lr-tb;text-anchor:start;fill:#0000ff;fill-opacity:1;stroke:none"
       id="text824"
       transform="translate(233.737,-148.85033)">
      <path
         d="m -125.76082,255.93247 c 5.92448,1.26953 17.02008,1.13297 29.715393,-1.12398 -0.375121,-30.32769 0.635031,-64.90468 0.36086,-94.80919 -39.505853,2.89027 -77.415833,29.88926 -95.897893,51.83401 -17.63237,22.85156 -28.19358,47.69616 -30.16841,76.04903 -2.39801,36.67535 9.07722,67.41273 26.56854,94.35501 15.65755,24.12109 57.42343,52.95247 98.511903,55.95843 1.269533,-36.11111 0.108819,-64.9022 -1.160714,-89.58753 -9.874129,-1.55165 -19.748259,-1.55165 -29.622389,0 -0.42318,2.53907 -0.28212,8.46355 0.42318,17.77344 0.56423,7.19401 -1.49907,20.13378 -3.33287,22.39072 -24.52009,-3.75776 -56.68713,-39.45886 -60.07255,-61.74619 -5.07813,-32.58463 -1.91779,-59.36787 11.62388,-83.20685 5.78342,-10.15625 26.12572,-32.58054 52.8485,-37.34648 0.98741,2.11588 -0.92591,25.55007 -1.49014,33.59044 -0.42318,7.89931 0.14106,13.18902 1.69271,15.86914 z"
         style="font-style:normal;font-variant:normal;font-weight:normal;font-stretch:normal;font-size:433.333px;font-family:'SunCatcherStudioFont left';-inkscape-font-specification:'SunCatcherStudioFont left';fill:#010101;fill-opacity:1"
         id="path825"
         inkscape:connector-curvature="0"
         sodipodi:nodetypes="cccccccccccccccc" />
    </g>



<g
       aria-label="c"
       style="font-style:normal;font-variant:normal;font-weight:normal;font-stretch:normal;font-size:5.33333px;line-height:1.25;font-family:'Open Sans';-inkscape-font-specification:'Open Sans, Normal';font-variant-ligatures:normal;font-variant-caps:normal;font-variant-numeric:normal;font-feature-settings:normal;text-align:start;letter-spacing:0px;word-spacing:0px;writing-mode:lr-tb;text-anchor:start;fill:#010101;fill-opacity:1;stroke:none"
       id="text828"
       transform="translate(273.30843,-148.85033)">
      <path
         d="m -24.975396,345.41405 c 0.705295,-1.12847 -2.327475,4.86654 -9.098308,17.98503 -3.667535,7.19401 -23.008249,26.68955 -45.340867,31.71757 -0.564236,-15.79861 -0.846354,-80.73559 -0.846354,-155.92005 0,-0.84635 -0.07053,-2.398 -0.211589,-4.65495 -0.141059,-1.97483 -0.211588,-3.52648 -0.211588,-4.65495 0.141059,-3.66753 0.300328,-19.04509 1.993037,-20.87886 20.58759,-4.64348 41.020356,20.17357 44.82895,27.22652 4.231771,8.04037 7.476128,13.25955 9.733073,15.65755 14.388021,1.83377 26.2119287,1.62218 31.4311128,-0.63476 C -8.2303215,208.0635 -50.281541,167.40393 -109.4533,159.96182 c -0.0644,91.59378 0.41633,186.41984 0.41633,277.13829 50.979067,-1.67922 102.9088531,-46.63592 116.5915789,-90.92845 -10.0151912,-1.55165 -22.3737549,-2.30926 -32.5300049,-0.75761 z"
         style="font-style:normal;font-variant:normal;font-weight:normal;font-stretch:normal;font-size:433.333px;font-family:'SunCatcherStudioFont right';-inkscape-font-specification:'SunCatcherStudioFont right';fill:#010101;fill-opacity:1"
         id="path822"
         inkscape:connector-curvature="0"
         sodipodi:nodetypes="cccscccccccccc" />
    </g>



  </g>
</svg>
